<mxfile host="app.diagrams.net" agent="Mozilla/5.0 (Windows NT 10.0; Win64; x64) AppleWebKit/537.36 (KHTML, like Gecko) Chrome/128.0.0.0 Safari/537.36 Edg/128.0.0.0" version="24.7.17">
  <diagram name="Page-1" id="NYpdusXRe-5Q48nrc2SD">
    <mxGraphModel dx="2766" dy="469" grid="0" gridSize="10" guides="1" tooltips="1" connect="1" arrows="1" fold="1" page="1" pageScale="1" pageWidth="1654" pageHeight="1169" math="0" shadow="0">
      <root>
        <mxCell id="0" />
        <mxCell id="1" parent="0" />
        <mxCell id="BnxCV7DyVBP9lFKoRa-R-29" style="edgeStyle=orthogonalEdgeStyle;rounded=0;orthogonalLoop=1;jettySize=auto;html=1;entryX=0;entryY=0.5;entryDx=0;entryDy=0;exitX=1;exitY=0.545;exitDx=0;exitDy=0;exitPerimeter=0;" parent="1" source="BnxCV7DyVBP9lFKoRa-R-6" target="BnxCV7DyVBP9lFKoRa-R-28" edge="1">
          <mxGeometry relative="1" as="geometry" />
        </mxCell>
        <mxCell id="BnxCV7DyVBP9lFKoRa-R-32" style="edgeStyle=orthogonalEdgeStyle;rounded=0;orthogonalLoop=1;jettySize=auto;html=1;entryX=1;entryY=0.5;entryDx=0;entryDy=0;" parent="1" source="BnxCV7DyVBP9lFKoRa-R-6" target="BnxCV7DyVBP9lFKoRa-R-31" edge="1">
          <mxGeometry relative="1" as="geometry" />
        </mxCell>
        <mxCell id="BnxCV7DyVBP9lFKoRa-R-6" value="&lt;p style=&quot;margin:0px;margin-top:4px;text-align:center;&quot;&gt;&lt;i&gt;&amp;lt;&amp;lt;abstract&amp;gt;&amp;gt;&lt;b&gt;&lt;br&gt;&lt;/b&gt;&lt;/i&gt;&lt;/p&gt;&lt;p style=&quot;margin:0px;margin-top:4px;text-align:center;&quot;&gt;&lt;b&gt;Person&lt;/b&gt;&lt;/p&gt;&lt;hr size=&quot;1&quot;&gt;&lt;p style=&quot;margin:0px;margin-left:4px;&quot;&gt;- cpf: String&lt;br&gt;&lt;/p&gt;&lt;p style=&quot;margin:0px;margin-left:4px;&quot;&gt;- name: String&lt;/p&gt;&lt;p style=&quot;margin:0px;margin-left:4px;&quot;&gt;- institution: String&lt;/p&gt;&lt;p style=&quot;margin:0px;margin-left:4px;&quot;&gt;- funds: BigDecimal&lt;br&gt;&lt;/p&gt;&lt;hr size=&quot;1&quot;&gt;+ viewFunds(): BigDecimal&lt;div align=&quot;left&quot;&gt;+ sendCoins(Student, BigDecimal): void&lt;/div&gt;&lt;div&gt;&lt;br&gt;&lt;/div&gt;" style="verticalAlign=top;align=left;overflow=fill;fontSize=12;fontFamily=Helvetica;html=1;whiteSpace=wrap;" parent="1" vertex="1">
          <mxGeometry x="339.5" y="253" width="232.5" height="178" as="geometry" />
        </mxCell>
        <mxCell id="BnxCV7DyVBP9lFKoRa-R-8" value="&lt;p style=&quot;margin:0px;margin-top:4px;text-align:center;&quot;&gt;&lt;b&gt;Student&lt;/b&gt;&lt;/p&gt;&lt;hr size=&quot;1&quot;&gt;&lt;p style=&quot;margin:0px;margin-left:4px;&quot;&gt;- address: String&lt;/p&gt;&lt;p style=&quot;margin:0px;margin-left:4px;&quot;&gt;- course: String&lt;br&gt;&lt;/p&gt;&lt;p style=&quot;margin:0px;margin-left:4px;&quot;&gt;- myCoins: List&amp;lt;Coins&amp;gt;&lt;/p&gt;&lt;hr size=&quot;1&quot;&gt;&lt;br&gt;&lt;div align=&quot;left&quot;&gt;&amp;nbsp;+ trade(Coins): void&lt;br&gt;&lt;/div&gt;" style="verticalAlign=top;align=left;overflow=fill;fontSize=12;fontFamily=Helvetica;html=1;whiteSpace=wrap;" parent="1" vertex="1">
          <mxGeometry x="151" y="568" width="253" height="141" as="geometry" />
        </mxCell>
        <mxCell id="BnxCV7DyVBP9lFKoRa-R-10" value="&lt;p style=&quot;margin:0px;margin-top:4px;text-align:center;&quot;&gt;&lt;b&gt;Teacher&lt;/b&gt;&lt;/p&gt;&lt;hr size=&quot;1&quot;&gt;&lt;p style=&quot;margin:0px;margin-left:4px;&quot;&gt;- department: String&lt;br&gt;&lt;/p&gt;&lt;hr size=&quot;1&quot;&gt;" style="verticalAlign=top;align=left;overflow=fill;fontSize=12;fontFamily=Helvetica;html=1;whiteSpace=wrap;" parent="1" vertex="1">
          <mxGeometry x="496" y="585" width="238" height="90" as="geometry" />
        </mxCell>
        <mxCell id="BnxCV7DyVBP9lFKoRa-R-11" value="&lt;p style=&quot;margin:0px;margin-top:4px;text-align:center;&quot;&gt;&lt;b&gt;Partner&lt;/b&gt;&lt;/p&gt;&lt;hr size=&quot;1&quot;&gt;&lt;p style=&quot;margin:0px;margin-left:4px;&quot;&gt;&lt;br&gt;&lt;/p&gt;&lt;hr size=&quot;1&quot;&gt;&lt;p style=&quot;margin:0px;margin-left:4px;&quot;&gt;+ addCoins(): void&lt;/p&gt;" style="verticalAlign=top;align=left;overflow=fill;fontSize=12;fontFamily=Helvetica;html=1;whiteSpace=wrap;" parent="1" vertex="1">
          <mxGeometry x="-78" y="759" width="160" height="90" as="geometry" />
        </mxCell>
        <mxCell id="BnxCV7DyVBP9lFKoRa-R-28" value="&lt;p style=&quot;margin:0px;margin-top:4px;text-align:center;&quot;&gt;&lt;b&gt;Transaction&lt;/b&gt;&lt;/p&gt;&lt;hr size=&quot;1&quot;&gt;&lt;p style=&quot;margin:0px;margin-left:4px;&quot;&gt;- amount: BigDecimal&lt;br&gt;- reason: String&lt;/p&gt;&lt;hr size=&quot;1&quot;&gt;&lt;p style=&quot;margin:0px;margin-left:4px;&quot;&gt;&lt;br&gt;&lt;/p&gt;" style="verticalAlign=top;align=left;overflow=fill;fontSize=12;fontFamily=Helvetica;html=1;whiteSpace=wrap;" parent="1" vertex="1">
          <mxGeometry x="688" y="310" width="160" height="80" as="geometry" />
        </mxCell>
        <mxCell id="BnxCV7DyVBP9lFKoRa-R-31" value="&lt;p style=&quot;margin:0px;margin-top:4px;text-align:center;&quot;&gt;&lt;b&gt;System&lt;/b&gt;&lt;/p&gt;&lt;hr size=&quot;1&quot;&gt;&lt;br&gt;&lt;hr size=&quot;1&quot;&gt;&lt;div&gt;+ register (): void&lt;/div&gt;&lt;div&gt;+ login (): void&lt;br&gt;&lt;/div&gt;" style="verticalAlign=top;align=left;overflow=fill;fontSize=12;fontFamily=Helvetica;html=1;whiteSpace=wrap;" parent="1" vertex="1">
          <mxGeometry x="128" y="291.5" width="160" height="101" as="geometry" />
        </mxCell>
        <mxCell id="BnxCV7DyVBP9lFKoRa-R-33" value="&lt;p style=&quot;margin:0px;margin-top:4px;text-align:center;&quot;&gt;&lt;b&gt;Coins&lt;/b&gt;&lt;/p&gt;&lt;hr size=&quot;1&quot;&gt;&lt;p style=&quot;margin:0px;margin-left:4px;&quot;&gt;- reason: String&lt;/p&gt;&lt;p style=&quot;margin:0px;margin-left:4px;&quot;&gt;- amount: BigDecimal&lt;br&gt;&lt;/p&gt;&lt;hr size=&quot;1&quot;&gt;&lt;p style=&quot;margin:0px;margin-left:4px;&quot;&gt;&lt;br&gt;&lt;/p&gt;" style="verticalAlign=top;align=left;overflow=fill;fontSize=12;fontFamily=Helvetica;html=1;whiteSpace=wrap;" parent="1" vertex="1">
          <mxGeometry x="-78" y="631" width="160" height="80" as="geometry" />
        </mxCell>
        <mxCell id="DEt6Tos6wfl24PdRQZcG-1" value="" style="endArrow=classic;html=1;rounded=0;entryX=0.5;entryY=1;entryDx=0;entryDy=0;exitX=0.5;exitY=0;exitDx=0;exitDy=0;" edge="1" parent="1" source="BnxCV7DyVBP9lFKoRa-R-11" target="BnxCV7DyVBP9lFKoRa-R-33">
          <mxGeometry width="50" height="50" relative="1" as="geometry">
            <mxPoint x="275" y="800" as="sourcePoint" />
            <mxPoint x="325" y="750" as="targetPoint" />
          </mxGeometry>
        </mxCell>
        <mxCell id="DEt6Tos6wfl24PdRQZcG-2" value="" style="endArrow=classic;html=1;rounded=0;entryX=1;entryY=0.5;entryDx=0;entryDy=0;" edge="1" parent="1" target="BnxCV7DyVBP9lFKoRa-R-33">
          <mxGeometry width="50" height="50" relative="1" as="geometry">
            <mxPoint x="149" y="671" as="sourcePoint" />
            <mxPoint x="325" y="750" as="targetPoint" />
          </mxGeometry>
        </mxCell>
        <mxCell id="DEt6Tos6wfl24PdRQZcG-3" value="" style="endArrow=block;endSize=16;endFill=0;html=1;rounded=0;entryX=0.531;entryY=1.017;entryDx=0;entryDy=0;entryPerimeter=0;exitX=0.5;exitY=0;exitDx=0;exitDy=0;" edge="1" parent="1" source="BnxCV7DyVBP9lFKoRa-R-8" target="BnxCV7DyVBP9lFKoRa-R-6">
          <mxGeometry width="160" relative="1" as="geometry">
            <mxPoint x="220" y="413" as="sourcePoint" />
            <mxPoint x="380" y="413" as="targetPoint" />
            <Array as="points">
              <mxPoint x="278" y="498" />
              <mxPoint x="466" y="500" />
            </Array>
          </mxGeometry>
        </mxCell>
        <mxCell id="DEt6Tos6wfl24PdRQZcG-4" value="" style="endArrow=none;html=1;rounded=0;exitX=0.5;exitY=0;exitDx=0;exitDy=0;" edge="1" parent="1" source="BnxCV7DyVBP9lFKoRa-R-10">
          <mxGeometry width="50" height="50" relative="1" as="geometry">
            <mxPoint x="617" y="503" as="sourcePoint" />
            <mxPoint x="467" y="501" as="targetPoint" />
            <Array as="points">
              <mxPoint x="615" y="501" />
            </Array>
          </mxGeometry>
        </mxCell>
      </root>
    </mxGraphModel>
  </diagram>
</mxfile>
